<svg width="24" height="22" viewBox="0 0 24 22" fill="none" xmlns="http://www.w3.org/2000/svg">
<path d="M5.55218 13.427L4.72887 16.2205L1.71966 16.2784C0.820346 14.7624 0.310242 13.0278 0.310242 11.1846C0.310242 9.40221 0.787177 7.72139 1.63258 6.24139L4.31226 6.6878L5.48585 9.1081C5.24022 9.75893 5.10634 10.4576 5.10634 11.1846C5.10643 11.9736 5.26369 12.7296 5.55218 13.427Z" fill="white"/>
<path d="M23.7563 9.17654C23.8921 9.82675 23.9629 10.4983 23.9629 11.1845C23.9629 11.9541 23.8739 12.7047 23.7043 13.4288C23.1286 15.8927 21.6243 18.0442 19.5404 19.5667L16.1654 19.4097L15.6878 16.7C17.0705 15.963 18.1512 14.8096 18.7204 13.4288H12.3965V9.17654H23.7563Z" fill="white"/>
<path d="M19.5404 19.5667C17.5137 21.0473 14.9393 21.9332 12.1367 21.9332C7.63292 21.9332 3.71716 19.6453 1.71966 16.2784L5.55218 13.427C6.55091 15.8496 9.12226 17.5742 12.1367 17.5742C13.4324 17.5742 14.6462 17.2558 15.6878 16.7L19.5404 19.5667Z" fill="white"/>
<path d="M19.6853 2.91037L15.8541 5.76111C14.7761 5.14869 13.5018 4.79491 12.1366 4.79491C9.05393 4.79491 6.43454 6.59866 5.48585 9.1081L1.63258 6.24139C3.60083 2.79238 7.56589 0.435822 12.1366 0.435822C15.0061 0.435822 17.6371 1.36483 19.6853 2.91037Z" fill="white"/>
</svg>
